inDegrees=no
num_controls=7
num_derivatives=13
num_iterations=111
num_multipliers=7
num_parameters=0
num_slacks=7
num_states=26
objective=0.444917
objective_accelerations=0.057718
objective_balance=0.003728
objective_effort=0.023525
objective_height=0.354416
objective_ligament=0.005530
solver_duration=1565.592287
status=Solve_Succeeded
success=true
DataType=double
version=3
OpenSimVersion=4.5
endheader
time	/jointset/ground_pelvis/pelvis_tilt/value	/jointset/ground_pelvis/pelvis_tx/value	/jointset/ground_pelvis/pelvis_ty/value	/jointset/hip_l/hip_flexion_l/value	/jointset/hip_l/hip_adduction_l/value	/jointset/hip_l/hip_rotation_l/value	/jointset/back/lumbar_extension/value	/jointset/patellofemoral_l/patellar_flexion_l/value	/jointset/knee_l/knee_flexion_l/value	/jointset/knee_l/knee_adduction_l/value	/jointset/knee_l/knee_rotation_l/value	/jointset/ankle_l/ankle_angle_l/value	/jointset/subtalar_l/subtalar_angle_l/value	/jointset/ground_pelvis/pelvis_tilt/speed	/jointset/ground_pelvis/pelvis_tx/speed	/jointset/ground_pelvis/pelvis_ty/speed	/jointset/hip_l/hip_flexion_l/speed	/jointset/hip_l/hip_adduction_l/speed	/jointset/hip_l/hip_rotation_l/speed	/jointset/back/lumbar_extension/speed	/jointset/patellofemoral_l/patellar_flexion_l/speed	/jointset/knee_l/knee_flexion_l/speed	/jointset/knee_l/knee_adduction_l/speed	/jointset/knee_l/knee_rotation_l/speed	/jointset/ankle_l/ankle_angle_l/speed	/jointset/subtalar_l/subtalar_angle_l/speed	/forceset/tau_hip_flexion_l	/forceset/tau_hip_adduction_l	/forceset/tau_hip_rotation_l	/forceset/tau_knee_flexion_l	/forceset/tau_ankle_angle_l	/forceset/tau_subtalar_angle_l	/forceset/tau_lumbar_extension	lambda_cid13_p0	lambda_cid13_p1	lambda_cid13_p2	lambda_cid13_p3	lambda_cid13_p4	lambda_cid13_p5	lambda_cid14_p0	/jointset/ground_pelvis/pelvis_tilt/accel	/jointset/ground_pelvis/pelvis_tx/accel	/jointset/ground_pelvis/pelvis_ty/accel	/jointset/hip_l/hip_flexion_l/accel	/jointset/hip_l/hip_adduction_l/accel	/jointset/hip_l/hip_rotation_l/accel	/jointset/back/lumbar_extension/accel	/jointset/patellofemoral_l/patellar_flexion_l/accel	/jointset/knee_l/knee_flexion_l/accel	/jointset/knee_l/knee_adduction_l/accel	/jointset/knee_l/knee_rotation_l/accel	/jointset/ankle_l/ankle_angle_l/accel	/jointset/subtalar_l/subtalar_angle_l/accel	gamma_cid13_p0	gamma_cid13_p1	gamma_cid13_p2	gamma_cid13_p3	gamma_cid13_p4	gamma_cid13_p5	gamma_cid14_p0
1.5	-0.3820286212152333	-0.029989285139835	0.7598264092105206	1.126246217409296	-0.4350080728495213	-0.2114955007033331	-0.2262669417761851	0.7982226072379728	0.7982226072379731	-0.1351435725061135	-0.1454026607572695	0.1148273453378715	-0.02676228978752784	0.7146544689451655	0.2882209075804859	0.5397204472964503	-2.511450387069218	0.2095318752733787	-0.7196873954575614	0.3124955495093002	-1.997929009921326	-1.997929009921276	-0.1178725568346849	0.1360473228005864	-0.3632159203540448	0.05665835240014601	-0.1813646508410994	0.0273709927042154	-0.007467655788552222	-0.199839679418798	0.04711833243806447	0.04488867261068385	0.172919221770422	-17.07865025578774	-19.38644799696577	6.046344918475376	-8.190144651747762	-520.1504790423633	-61.65240635059787	-25.26530990826571	0.7066321199203636	0.7345632794481785	-0.5145138334904619	-1.341041211657893	0.7157146018801206	-0.1680093589750645	1.495001273552165	-1.300169415390933	-1.300169415390888	0.1262876581603588	0.2244379667505089	-0.4661584184289113	0.5320507037227968	4.843122473244432e-07	6.907843524106993e-07	-2.558250674344757e-06	-4.217764440772177e-08	6.938494940184196e-07	-9.810446054777869e-08	4.599389978969763e-07
1.51	-0.3748468427817784	-0.02707064291810624	0.7651968129396061	1.101066416273431	-0.4328785400663331	-0.2186995256972412	-0.2230686035185125	0.7781806133546494	0.778180613354654	-0.1363191543833932	-0.1440323248551044	0.1111720058544079	-0.02617097594913146	0.7215937621171813	0.2954681209458856	0.5342450545327303	-2.524156275708618	0.2163510996758573	-0.7210028705843203	0.3271352045071786	-2.010192936041672	-2.010192936041637	-0.1172538033266284	0.1380165398599931	-0.3677897336933924	0.06160269380377249	-0.1750959561815325	0.0264152241840069	-0.007132204873130965	-0.1970763395185803	0.04681508909243165	0.04421650197904515	0.167849702027085	-16.9501850728618	-19.12684654667316	6.016183788239603	-7.976765998648344	-516.0688516208269	-61.9652596456296	-26.16791207923491	0.6714829867337938	0.7139161655945634	-0.5812203840536102	-1.182295507270202	0.6615303949402458	-0.09574580269733071	1.442912985186201	-1.1480600351136	-1.148060035115923	0.02832086206916289	0.1823134448394053	-0.4436242177335199	0.4753613590898412	4.288358832477776e-07	1.029843831148305e-06	-1.923175263155875e-06	7.863180044069781e-08	6.26008234386494e-07	4.034814557369103e-09	4.217982887685269e-07
1.52	-0.3675988904024254	-0.02408070540262173	0.770509029063806	1.075770169687733	-0.4306815142320183	-0.2259131912850511	-0.2197249756364053	0.758024269045171	0.7580242690451804	-0.1374888183926037	-0.1426424668084849	0.1074728019523416	-0.02553027159661736	0.727889258124862	0.3024799663316335	0.5280829263193776	-2.534739477035581	0.2230304854986767	-0.7216155142379205	0.3415534743962786	-2.020799095152305	-2.020799095152286	-0.1166889832209368	0.1399517516915464	-0.3719888040745731	0.06653645522368985	-0.1688272615219683	0.02545945566379885	-0.006796753957707423	-0.1943129996183628	0.04651184574679908	0.04354433134740711	0.1627801822837447	-16.82501033577219	-18.86961908550036	5.989772010880574	-7.794269703108204	-512.0540162539605	-62.32763078988977	-27.07039225613689	0.5778726870533407	0.6874896835178136	-0.6518609234170102	-0.9165037491703601	0.687746885948299	-0.02744306434331917	1.45072425179646	-0.9686160134483988	-0.9686160134483743	0.115500977687385	0.2176369211798271	-0.3912098267954811	0.5299347069809788	4.010881699436348e-07	1.254995440795691e-06	-1.565526919184338e-06	1.500315480215822e-07	6.023131034209359e-07	8.367981016788269e-08	4.025463230256112e-07
1.53	-0.3602911969746457	-0.02102189359556722	0.7757562723214169	1.050378616776162	-0.4284184630915887	-0.2331300392434537	-0.2162384705328484	0.7377701853147054	0.7377701853147285	-0.1386528455797307	-0.1412337838290106	0.1037335079706322	-0.02484032737815503	0.7335351619716068	0.3092356754949672	0.5212566287125705	-2.543205306821394	0.2295513642131195	-0.7216564594104197	0.3556990331575782	-2.029724681023641	-2.029724681023541	-0.1161107745265946	0.1417684087234728	-0.3757988990006325	0.07145093800475434	-0.1625299170711755	0.0245395186947085	-0.006471300507816135	-0.1916699711079316	0.04636306709964937	0.04255005284502884	0.1576554418430217	-16.6680203628342	-18.47163347489152	5.933565504858477	-7.539563165447507	-508.1686708390695	-62.41979752085516	-27.97292710053965	0.5408243606316092	0.6626394056669535	-0.7142510630648127	-0.7567283904689719	0.6299956652761249	0.02258942613471027	1.38919471465286	-0.810665146658367	-0.810665146646173	0.03001584262441039	0.1608817343494672	-0.3652036395434103	0.4719326502069728	4.028021480852969e-07	1.359119939534722e-06	-1.502644834131227e-06	1.689334922557109e-07	6.255232341633927e-07	1.394246338153477e-07	4.033636471298246e-07
1.54	-0.3529304694829692	-0.01789691912229423	0.780932005226209	1.024913384407296	-0.4260910557037978	-0.2403442947196135	-0.2126119652364074	0.7174356186709906	0.7174356186710275	-0.1398108836744534	-0.1398074939511842	0.09995825417685579	-0.02410129281457449	0.7384960709042135	0.3157124995753303	0.5137808557556804	-2.549475368494494	0.235901734970916	-0.7210970177894013	0.3695535129731244	-2.036895677802264	-2.036895677802081	-0.1154911647395813	0.1434731313614159	-0.3791807664879814	0.07635452424733066	-0.156232572620383	0.02361958172561903	-0.006145847057941932	-0.1890269425974979	0.04621428845250072	0.04155577434265243	0.1525307014022975	-16.51289049755669	-18.07702148842072	5.882123358348735	-7.32137379649304	-504.3250686337209	-62.55901453127783	-28.8763643878899	0.4408737042257027	0.6317126669237237	-0.7817559934335777	-0.477350126627673	0.6536452946190165	0.09263429436015647	1.392508462645784	-0.61769819490563	-0.6176981949056302	0.1237811962215985	0.1952500423831766	-0.3055643390533897	0.5277553992833506	3.942824811498767e-07	1.474287741036984e-06	-1.396180361179473e-06	1.985080932325788e-07	6.298946098677185e-07	1.905018136491885e-07	3.998860992305469e-07
1.55	-0.3455235579275299	-0.01470867701349036	0.7860298019839433	0.9993964814373432	-0.4237010382922259	-0.2475504593199469	-0.2088486218995773	0.6970382501446539	0.6970382501446812	-0.1409622360992087	-0.1383650630300602	0.09615134094033269	-0.02331329280508282	0.7427672615406453	0.3218773386472318	0.5056766839278438	-2.553526671700665	0.2420650115104435	-0.7200294486008186	0.3830438120722563	-2.042275243952993	-2.042275243952965	-0.1147835672832821	0.1450000816479781	-0.3821320580053677	0.08123440539869979	-0.1499352888763089	0.02255593325273986	-0.005829763086902308	-0.186433128851299	0.04591749899263899	0.04044401700175725	0.1473566141039682	-16.42135820176555	-17.61871081786366	5.818763433992139	-6.945663354492689	-500.6326794804962	-62.62607944207475	-29.78207548836317	0.4023961565112865	0.6001347248791885	-0.839898970880115	-0.312228109300579	0.5920758962992224	0.1301375923664271	1.316589285436565	-0.4527456541543137	-0.4527456541774046	0.04384738462594182	0.1291920566837341	-0.2793860528382605	0.4663108243503005	3.739718753212969e-07	1.602179347896882e-06	-1.239501397822765e-06	2.403794508912977e-07	6.125604634628944e-07	2.362010560455931e-07	3.914601118489863e-07
1.56	-0.3380775035830944	-0.01146053347445632	0.791043526784715	0.9738504238969904	-0.4212505067027227	-0.2547426843561427	-0.2049525158413781	0.6765961539910106	0.6765961539910269	-0.1421065928765423	-0.1369078076990926	0.0923170198896843	-0.02247685271382014	0.7463246287034522	0.3276927856213643	0.4969664643631546	-2.555306282574387	0.248004570557155	-0.7183091049618713	0.396106057246976	-2.045841203263633	-2.045841203263759	-0.1140920352553079	0.1464380133301802	-0.3846623293130345	0.08604254060153339	-0.1436380051322376	0.02149228477986048	-0.005513679115860271	-0.1838393151051	0.0456207095327776	0.03933225966086196	0.1421825268056361	-16.33387788955723	-17.16354021719361	5.760302138975465	-6.595619028682481	-497.0085580828639	-62.74119355279948	-30.68074479125776	0.2981090095006919	0.5618342473699187	-0.9029655408041042	-0.02301166013780776	0.6089017960558234	0.2231891844331008	1.306897677763327	-0.2549768268877826	-0.2549768268877767	0.1205681105566114	0.1774463215111484	-0.2213602971095015	0.5134062095762504	3.433841944311152e-07	1.731168423035227e-06	-1.042188354475839e-06	2.88503090478847e-07	5.749847255957519e-07	2.717772666903393e-07	3.778202954347884e-07
1.57	-0.3305995541601532	-0.008156039917626538	0.7959671954214413	0.9482981169547503	-0.4187416373093583	-0.2619151588240543	-0.2009279552275887	0.6561277118435921	0.6561277118435729	-0.1432434735898415	-0.1354370809523966	0.08845965488993011	-0.0215925080346069	0.7491399705816931	0.333140753947232	0.4876759512062484	-2.554771740311019	0.253726291112127	-0.7160763518199088	0.4087230886945836	-2.04753911695221	-2.047539116952199	-0.1132914573329356	0.1476969171899457	-0.3867366983647929	0.09081138463691275	-0.1373536735712029	0.01999940048942345	-0.005231990900460371	-0.1814028275966761	0.04536779112462252	0.0383124126832427	0.1370043764596305	-16.24721832431726	-16.75061921238977	5.711404674557998	-6.218189178828989	-493.6281574585546	-62.99261103438533	-31.56032391148336	0.2544364328686057	0.5265776854933346	-0.9556957885787708	0.1491791727837489	0.5471724366515716	0.2400419625755944	1.226659355797628	-0.08105146119915216	-0.0810514611787115	0.0590014912866977	0.0983561763646868	-0.1893175521600175	0.4561391372336925	2.999501697139311e-07	1.86152933352163e-06	-7.940827111411422e-07	3.444420824774339e-07	5.121069984007115e-07	2.946996876455127e-07	3.576631927297936e-07
